<svg width="674" height="693" viewBox="0 0 674 693" fill="none" xmlns="http://www.w3.org/2000/svg">
<circle cx="303.217" cy="303.217" r="219" transform="rotate(-32.633 303.217 303.217)" fill="url(#paint0_radial)" stroke="white"/>
<circle cx="370.217" cy="389.217" r="218" transform="rotate(-32.633 370.217 389.217)" fill="url(#paint1_linear)" stroke="white" stroke-width="3"/>
<g filter="url(#filter0_d)">
<path d="M460.781 360.807C478.587 375.504 479.57 402.455 462.67 418.186C428.789 449.725 399.214 466.294 357.859 477.457C338.503 482.682 318.434 471.689 312.635 452.497C299.961 410.554 299.751 376.265 312.24 329.911C318.039 308.386 341.058 296.609 362.003 304.243C401.457 318.623 429.623 335.088 460.781 360.807Z" fill="url(#paint2_linear)"/>
</g>
<defs>
<filter id="filter0_d" x="261" y="269.912" width="259.762" height="264.843" filterUnits="userSpaceOnUse" color-interpolation-filters="sRGB">
<feFlood flood-opacity="0" result="BackgroundImageFix"/>
<feColorMatrix in="SourceAlpha" type="matrix" values="0 0 0 0 0 0 0 0 0 0 0 0 0 0 0 0 0 0 127 0"/>
<feOffset dx="2" dy="12"/>
<feGaussianBlur stdDeviation="22"/>
<feColorMatrix type="matrix" values="0 0 0 0 0.433333 0 0 0 0 0.433333 0 0 0 0 0.433333 0 0 0 1 0"/>
<feBlend mode="normal" in2="BackgroundImageFix" result="effect1_dropShadow"/>
<feBlend mode="normal" in="SourceGraphic" in2="effect1_dropShadow" result="shape"/>
</filter>
<radialGradient id="paint0_radial" cx="0" cy="0" r="1" gradientUnits="userSpaceOnUse" gradientTransform="translate(304.779 296.281) rotate(90.3952) scale(226.441)">
<stop stop-color="#24EF6D"/>
<stop offset="1" stop-color="#5EAD83"/>
</radialGradient>
<linearGradient id="paint1_linear" x1="373.34" y1="155.845" x2="370.217" y2="608.717" gradientUnits="userSpaceOnUse">
<stop stop-color="#53A373"/>
<stop offset="0.779167" stop-color="#36CDA2"/>
<stop offset="1" stop-color="white" stop-opacity="0.45"/>
</linearGradient>
<linearGradient id="paint2_linear" x1="492" y1="388.5" x2="268.259" y2="388.5" gradientUnits="userSpaceOnUse">
<stop stop-color="#EFEFEF"/>
<stop offset="1" stop-color="#BDBDBD"/>
</linearGradient>
</defs>
</svg>
